<?xml version="1.0" encoding="UTF-8" standalone="no"?>
<!-- Uploaded to: SVG Repo, www.svgrepo.com, Generator: SVG Repo Mixer Tools -->

<svg
   fill="#000000"
   width="512"
   height="512"
   viewBox="0 0 327.68 327.68"
   id="_04_In_alt_"
   data-name="04 In (alt)"
   version="1.1"
   sodipodi:docname="consumer-icon.svg"
   inkscape:version="1.3.2 (091e20e, 2023-11-25, custom)"
   xmlns:inkscape="http://www.inkscape.org/namespaces/inkscape"
   xmlns:sodipodi="http://sodipodi.sourceforge.net/DTD/sodipodi-0.dtd"
   xmlns="http://www.w3.org/2000/svg"
   xmlns:svg="http://www.w3.org/2000/svg">
  <defs
     id="defs1" />
  <sodipodi:namedview
     id="namedview1"
     pagecolor="#505050"
     bordercolor="#ffffff"
     borderopacity="1"
     inkscape:showpageshadow="0"
     inkscape:pageopacity="0"
     inkscape:pagecheckerboard="1"
     inkscape:deskcolor="#d1d1d1"
     inkscape:zoom="1.10125"
     inkscape:cx="307.37798"
     inkscape:cy="288.30874"
     inkscape:window-width="1920"
     inkscape:window-height="1057"
     inkscape:window-x="1912"
     inkscape:window-y="-8"
     inkscape:window-maximized="1"
     inkscape:current-layer="_04_In_alt_" />
  <path
     id="Path_6"
     data-name="Path 6"
     d="M 279.56389,10.91285 H 145.75967 a 19.11489,19.11489 0 0 0 0,38.229777 H 260.449 V 278.52129 H 145.75967 a 19.114889,19.114889 0 0 0 0,38.22977 h 133.80422 a 19.109513,19.109513 0 0 0 19.11489,-19.11489 V 30.027739 A 19.109513,19.109513 0 0 0 279.56389,10.91285 Z"
     fill-rule="evenodd"
     style="fill:#f9f9f9;stroke-width:0.597341" />
  <path
     id="Path_7"
     style="fill:#f9f9f9;stroke-width:0.815834"
     d="M 106.54875 82.9175 L 106.54875 142.50125 L 54.62875 142.50125 L 54.62875 182.22375 L 106.54875 182.22375 L 106.54875 241.80625 L 243.815 162.3625 L 106.54875 82.9175 z " />
  <path
     id="rect1"
     style="fill:#f9f9f9;stroke-width:0.515543"
     d="m 32.417935,142.5359 c -17.182295,0 -31.085835,8.89302 -31.085835,19.86125 0,10.96823 13.90354,19.86125 31.085835,19.86125 h 53.76273 v -39.7225 z" />
</svg>
